<svg width="357" height="382" xmlns="http://www.w3.org/2000/svg">
 <!--! Font Awesome Pro 6.1.1 by @fontawesome - https://fontawesome.com License - https://fontawesome.com/license (Commercial License) Copyright 2022 Fonticons, Inc. -->

 <g>
  <title>Layer 1</title>
  <rect fill-opacity="0.9" fill="#556677" x="97.39567" y="-0.00095" width="262" height="347" id="svg_2"/>
  <rect fill="#e8dada" x="131.39567" y="32.99905" width="41" height="34" id="svg_4"/>
  <rect fill="#e8dada" x="209.39567" y="32.99905" width="41" height="34" id="svg_6"/>
  <rect fill="#e8dada" x="287.39567" y="32.99905" width="41" height="34" id="svg_7"/>
  <rect fill="#e8dada" x="131.39567" y="99.99905" width="41" height="34" id="svg_8"/>
  <rect fill="#e8dada" x="209.39567" y="99.99905" width="41" height="34" id="svg_9"/>
  <rect fill="#e8dada" x="287.39567" y="99.99905" width="41" height="34" id="svg_10"/>
  <rect fill="#e8dada" x="131.39567" y="164.99905" width="41" height="34" id="svg_11"/>
  <rect fill="#e8dada" x="208.99568" y="164.99905" width="41" height="34" id="svg_12"/>
  <rect fill="#e8dada" x="287.39567" y="164.99905" width="41" height="34" id="svg_13"/>
  <path fill-opacity="0.9" d="m-0.00432,266.99904l0,96c0,8.53333 9.27914,16 19.875,16l19.875,0l0,-128l-19.875,0c-10.59586,0 -19.875,7.46667 -19.875,16zm139.125,-48l-66.25,0c-10.6,0 -19.875,7.47 -19.875,16l0,144l106,0l0,-144c0,-8.53 -9.275,-16 -19.875,-16zm0,32l-66.25,0l0,-16l66.25,0l0,16zm53,0l-19.875,0l0,128l19.875,0c10.59586,0 19.875,-7.47 19.875,-16l0,-96c0,-8.53333 -9.275,-16 -19.875,-16z" id="svg_1" fill="#424946"/>
  <rect fill="#7f7f7f" x="39.3952" y="250.99495" width="14.00047" height="128.0041" id="svg_14"/>
  <rect fill-opacity="0.9" fill="#7f7f7f" x="158.99556" y="251.32825" width="13.33388" height="128.0041" id="svg_17"/>
 </g>
</svg>