<svg width="474" height="415.00000000000006" xmlns="http://www.w3.org/2000/svg">
 <!--! Font Awesome Pro 6.1.1 by @fontawesome - https://fontawesome.com License - https://fontawesome.com/license (Commercial License) Copyright 2022 Fonticons, Inc. -->

 <g>
  <title>Layer 1</title>
  <ellipse fill-opacity="0.9" ry="173.5" rx="178" id="svg_2" cy="173.5" cx="296" fill="#5f758c"/>
  <ellipse ry="127" rx="127" id="svg_4" cy="287.5" cx="127.5" fill-opacity="0.9" fill="#89716e"/>
  <path id="svg_1" d="m443.77733,112.82532l-187.73046,-70.25146c-9.11758,-3.40845 -19.05859,-3.40845 -28.17617,0l-187.21249,70.25146c-6.38297,2.42965 -10.6582,8.81614 -10.6582,16.03566s4.27523,13.64072 10.6582,16.02872l39.85703,14.93191c-7.8957,10.96811 -13.45391,23.71334 -16.30273,37.45125c-7.6168,3.36679 -12.9625,11.2805 -12.9625,20.44373c0,6.90922 3.1968,12.83547 7.92891,16.91033l-16.48867,103.43348c-1.08242,6.76136 3.91133,12.9396 10.47891,12.9396l38.66172,0c6.56559,0 11.56133,-6.16366 10.47891,-12.93266l-16.48867,-103.43348c4.73477,-4.07486 7.92891,-10.6002 7.92891,-16.91727c0,-7.14316 -3.43586,-13.21033 -8.44687,-17.27825c2.82359,-12.32872 8.55312,-23.47732 16.56172,-32.64749l126.57031,47.3642c9.11758,3.40845 19.05859,3.40845 28.17617,0l187.73046,-70.25146c6.4082,-2.43659 10.6582,-8.82308 10.6582,-16.0426s-4.25,-13.60601 -11.22266,-16.03566zm-180.62499,123.21774c-6.24219,2.56848 -15.14976,3.63758 -20.65234,3.88743c-5.50258,0.24985 -14.40352,-1.29604 -21.25,-3.85619l-96.42187,-36.05941l-9.82812,99.12954c0,28.66982 56.51172,51.85558 127.5,51.85558c69.79297,0 127.5,-23.18576 127.5,-51.83475l-9.81484,-99.19896l-97.03281,36.07677z"/>
  <path id="svg_6" d="m124.75244,199.5968l-10.08658,100.40109l10.08658,-100.40109z" opacity="NaN" fill="#bf0000"/>
 </g>
</svg>